<svg xmlns="http://www.w3.org/2000/svg" version="1.1" width="182" height="53"><path fill="#eb3f3f" d="M43 32.3c0 .3-.2.5-.3.7 0 .3-.2.4-.4.5h-.8l-.8.2H38c-.3 0-.4 0-.6-.2H29l-1.4.2h-6.2c-.4 0-1 0-1.4-.2h-1.4c-1 0-2-.3-3-.4-.3 0-.8 0-1.2-.2l-1.2-.3c-.4 0-.7-.2-1-.3l-.8-.4-.5-.6-.3-.7V30c0-.3.2-.4.3-.4h.3c.2 0 .5 0 1 .3l2 .7 1.7.5c.6 0 1.3.2 2 .4 1.7.2 3.7.3 6.3.3 2 0 4-.2 5.5-.5l1-.2h.4l.5-.2s.3 0 .5-.2c.5-.3 1-.5 1.2-1 .3-.2.6-.6.8-1 .4-.7.6-1.4.6-2.2 0-1.2-.5-2-1.3-3L33 23c-.2 0-.4 0-.5-.2l-.6-.3c-.3 0-.6-.2-1-.4l-2.3-.8-2.6-.7-2.8-.7-3-.5-6.2-1c-1 0-2-.3-3-.4l-2.8-.6-1.5-.3c-.5 0-1 0-1.4-.2L4 16.5 3 16l-1-.7-.7-1-.2-1V12l.4-.7.8-1C3 10 3.8 9.2 5 8.6l1.7-1 2.2-1 2.2-.8 2.6-1L19 3.4c2-.4 3.8-1 5.5-1.2 1 0 1.8-.2 2.7-.4l2.5-.3L34 1h1c.4 0 .7 0 1 .2.4 0 .6.3.6.7 0 .2 0 .3-.2.5V3H36l-.3.6-.5.5c-.2.3-.5.4-.8.5l-1.2.2H33c-.2 0-.3-.2-.3-.3 0-.2 0-.3.4-.3h.6c0-.2.2-.3.2-.3s0-.2.2-.3c0 0 0-.2-.2-.3h-1.3c-1 0-2 0-3.5.2l-2 .3c-.8 0-1.6.3-2.5.5-.8 0-1.6.3-2.4.5l-2.5.6-2.7.8-2.5.7-2.5.8-2.3.8-2.2 1-2 .8-.6.3c0 .2-.3.3-.4.4 0 0-.3 0-.4.2-.2 0-.3.2-.5.3l-.7.5-.2.5v.7l.5.6.5.4.6.3 2.5.7 1.3.3c.5 0 1 0 1.6.2l2.8.5c1 0 2 .3 3 .4l3 .6 3 .6 3 .7 2.8.7 2.6 1c.8.2 1.5.5 2.2 1 .7.2 1.4.6 2 1 .6.3 1 .7 1.6 1.2.4.3.7.8 1 1.4.3.5.5 1 .5 1.6 0 1.2-.3 2.2-.7 3-.3.2-.5.6-.8 1l-.8.7c0 .2-.2.3-.3.5v.5H39l1-.3h1.3c.2-.2.4-.2.5-.2h.7v.3c.2 0 .2.2.3.3v.6zm65-6.7l.2-4V19H104l.3.6v.4l.2.3.2.6.5 1.2.5 1.5.4 1.3.5 1.4c0 .2 0 .3.2.5v.2s.2 0 .2.2v.5l.4-.7c0-.2 0-.3.2-.5V26l.3-.7zm-4.5-8h4.2c0-.7 0-1.3-.3-2l-.5-1.7c-.4-1.3-1-2.3-1.4-3.2l-.5-1-.7-.8c-.3-.3-.6-.5-1-.6h-.8c-.3 0-.6 0-.8.4-.3.2-.4.6-.4 1.2v.5l.2.6v.8c.2.3.2.6.3 1l.3 1 .5 1 1 3zM86 42.7l-1-2.8-.7-2-.5-1c0-.4-.3-.8-.4-1 0-.4-.2-.7-.3-1 0-.4-.2-.7-.3-1H82c-.2 0-.4 0-.6.2l-.8.5-.7.6-.5.6-.2.7-.2.7v2.2l.4 1.2.6 1.4.8 1.4.8 1.3 1 1.2c.2.5.6 1 1 1.2l1 1 .7.8c.2 0 .5.4.8.6l.7.5h1.1l.4-.3.2-.4v-1.1s0-.3-.2-.4v-.4l-.3-.8-1-2c-.2-.6-.5-1.3-1-2zm-36.7-12V29c-.3-.5-.5-.7-.8-.7 0 0-.2 0-.2.4 0 .2 0 .5.3 1 0 0 0 .3.3.4 0 .3 0 .4.3.5zm63.7-13v.2c.2 0 .2.3.3.4v.7c0 .4 0 .6-.4.6h-1l-2-.3v4.2c0 .6-.2 1.2-.4 2 0 .6-.4 1.3-.6 2l-1 1.6.4 1 .3 1 .3.7c.2.3.2.5.2.8v.4c-.2 0-.3.3-.4.4l-.5.3c-.2 0-.4 0-.7-.2l-.4-.3s-.3-.3-.4-.8V32l-.4-.8V31c-.2 0-.2 0-.3-.3 0 .2-.3.3-.6.4l-.8.5-2 .8c-.5 0-.8.2-1.2.3l-1 .2c-.5 0-.8 0-1.2.2h-1c-1.2 0-2-.2-2.8-.5-.2 0-.3-.2-.5-.4-.2 0-.3-.2-.4-.4l-.3-.6v-.6c0-.3 0-.5.3-.5h.4l.2.2h.2l.3.3 1 .2h.7s.3 0 .5-.2l.3-.2.2-.4c0-.4 0-.6-.2-.8-.3-.3-.8-.4-1.5-.4-.8 0-1.6 0-2.3.4l-1 .5-1 .7-.6.5c-.3 0-.6.3-1 .4 0 .2-.4.3-.6.4l-1 .2-.8.3c-.3 0-.7 0-1 .2-.3 0-.6 0-1 .2-.3 0-.6 0-1 .2H84.1c0 .5.2.8.3 1 0 .4 0 .7.2 1l.3 1 .4 1c.4.8.8 1.6 1 2.4l1.2 2.4.7 2.3.8 2 1 2.1v1c0 .5 0 1-.2 1.3l-.6 1c-.5.4-1 .7-2 .7-.6 0-1.3-.3-2-.7-.4-.3-.8-.5-1-.8l-1.2-1-1-1.2-1-1.4c-.3-.6-.7-1-1-1.4l-.8-1.4-1-1.5-.5-1.6c-.3-.7-.4-1.5-.4-2.2v-1.4c0-.5.2-1 .3-1.2.3-.8.7-1.5 1.2-2 .2-.3.5-.5 1-.7l.8-.5.8-.4 1-.3V32H82v-.4h-.3l-.5.3h-.3c0 .2 0 .3-.3.4-.3 0-.4 0-.6.2-.2 0-.4 0-.5.2l-1.3.2c-.6 0-1-.2-1.5-.4-.4-.2-.8-.5-1-.8-.2 0-.3-.3-.5-.6l-.3-.7-.5.3c-.2 0-.3.2-.5.3 0 .2-.3.3-.4.3-1 .5-2 1-3 1-1 .3-1.8.4-2.6.4-1.5 0-2.7-.3-3.5-1l-1.4-1c-.3 0-.5-.3-.7-.4L62 30l-.6-.6-.7-.3H60c-.5 0-1 .2-1.3.7-.2.2-.3.5-.2 1v1.9l-.5.2s-.3 0-.4.2h-.5s-.3 0-.6-.3c-.4 0-.6-.3-.8-.5l-.7-1.6v-.2l-.8.4c-.3 0-.6 0-.8.2-.8.3-1.5.5-2.2.5-.4 0-.8 0-1-.2l-.5.5c0 .2-.3.4-.5.5l-.7.3c-.3.2-.6.2-1 .2h-.4s-.3 0-.5-.2H46l-.5-.3c-.4-.2-.8-.5-1-.8L44 31l-.3-.5-.3-.8v-1.5l.5-.7c0-.2.3-.4.7-.5.4-.2.7-.2 1-.2h.5l.5.2c.2 0 .2.2.2.4v.2h-.2c0 .2-.2.2-.3 0H45.4l-.2.3v1.7l.4.5c0 .2.2.3.3.5l.3.4c0 .2.2.3.4.4.2 0 .4.2.5.3h.6c.3 0 .6 0 .7-.2l.4-.2c-.3 0-.5 0-.8-.2l-.6-.6c-.2-.4-.4-1-.4-1.4v-.7l.2-.4c0-.3.3-.5.5-.6 0 0 .3 0 .5-.2h.7l.6.4s0 .3.2.4l.2.3c0 .2 0 .3.2.4V30c-.2.2-.2.4 0 .4h1.5l.7-.3c.5 0 1-.3 1.5-.7V29c-.4-.3-.5-.7-.5-1 0 0 0-.2.2-.2l.2-.2h.3c0-.2.2-.2.3-.2h.3l.4-.2v.2l.2.3c0 .2 0 .3.2.5l.5 1.2.2.5.3.3v.5l.3.3c0-.5 0-1 .2-1.5 0-.5.2-1 .3-1.2.2-.4.5-.7 1-.8.3-.2.7-.3 1-.3h1c.3 0 .5.2.8.3l1 .3c.3 0 .6.2.8.4.4 0 .6.3.8.4.2 0 .4.3.6.4l.8.5.7.4.8.3c.3.2.6.3 1 .3.5.2 1.2.3 2 .3s1.5 0 2.3-.3c.8 0 1.6-.4 2.3-.7l.7-.4c0-.4 0-.8.2-1.2 0-.3.3-.7.5-1 .3-.3.6-.5 1-.6l1.4-.3c.6 0 1 0 1.4.2l.6.2s.3 0 .4.2c0 0 .2 0 .3.2.2 0 .3.2.3.3l.3.2.2.4v.6l-.3.3-.2.2h-.3v-.2h-.2v.1H80s0-.2-.2-.2l-.4-.3s-.2 0-.3-.2H79l-1-.3h-.2s0 .2-.3.3l-.2.5v.5s0 .2.2.3l.2.4s0 .3.2.4l.3.3.2.2h2l.4-.3c.2 0 .3 0 .5-.2l.7-.6v-2.2l.4-.2h.4c.2 0 .3 0 .5-.2h.3c.2 0 .3 0 .3.4l-.2.4v.6s0 .2-.2.2v1.4c.2 0 .2.2.2.4v.2l.3.5h1.1l2-.5c.3 0 .6 0 1-.2.3 0 .6 0 1-.2l.8-.3 1-.3.6-.4h.2c0-.2 0-.2.2-.3l.7-.6.6-.6.7-.5c.2-.3.4-.4.6-.5l.7-.4c.2 0 .4 0 .6-.2.3 0 .5 0 .7-.2h2c.4 0 .7.2 1 .4l.4.4c.2 0 .3.3.5.5.2 0 .4.3.5.5v1.3c-.2 0-.3 0-.4.2v.3h-.2l-.4.4H99h1.9c.3 0 .6 0 1-.2h.7l1-.4.7-.3c.5 0 1-.3 1.3-.6v-.2l-.6-1.5c0-.4-.3-1-.4-1.4L104 24l-.5-1.5-.5-1.2c0-.3-.2-.7-.4-1 0-.3 0-.6-.2-.8l-.2-.5-.2-.2H89.8l-4 .2H82c-1.2 0-2.4 0-3.6.2h-6.7v-.5c-.2 0-.2-.3-.2-.4v-.6c.2-.2.4-.2.6-.2H79l7.6-.2h3.8l4-.2h7.3c0-.4-.2-.7-.3-1l-.3-1-.4-1c0-.4 0-.7-.2-1L100 12V9.4l.3-1.2.7-1 .7-.3.7-.3c.4 0 .8 0 1.3.3.5.2 1 .4 1.3.7l1 1 1 1.4c.4 1 1 2 1.4 3.5l.6 2 .4 2h2.9c.2 0 .4 0 .5.3zm67.2 13c0 .2-.3.4-.5.7 0 .2-.4.4-.6.6 0 .3-.3.4-.6.5l-.5.2c-.5 0-.8 0-1-.2l-.6-.5-.6-.5c-.2-.2-.5-.2-.8-.2h-5.7c-.8 0-1.6 0-2.3-.2h-2.6s-.2 0-.3-.2l-.4-.3-.6-.2h-1.6l-.8.4-1 .3h-1.2c-.6 0-1 .2-1.2.3l-.6.5-.3.4-.7.2c-.3 0-.5-.3-.7-.7-.3-.4-.4-1-.5-1.4 0-.5-.3-1-.4-1.4 0-.5-.3-.7-.6-.8h-.8l-.4.6-.3.6-.4.7-1.3 1c-.3 0-.5.2-.8.3-.3 0-.5.3-.8.4h-.6l-.8.4-1.8.3h-1c-.2 0-.4 0-.6-.2h-.6c-.2 0-.4 0-.7-.2l-.4-.4-.4-.6-.3-1v-1.5h-.2c0-.2 0-.2-.2-.2h-.9v1c0 .3-.2.5-.5.7-.2.3-.5.5-1 .8l-.3.2-.4.2-.7.4-.7.3h-.7l-.8.4h-4l-.6-.4-.4-.3c-.2 0-.3-.3-.5-.6l-.2-.8v-1.7h-1.6l-.3-.2v1.5l-.4.7c0 .2-.5.4-1 .7 0 0 0 .2-.3.3h-.3l-1 .6c-.4 0-.8.2-1 .3l-1.2.2c-.4 0-.8.2-1 .3l-2.3.2H117.2c-.2 0-.3 0-.5-.2h-.8c-.4-.2-.6-.3-.8-.6l-.2-.5V31c0-.2 0-.5.4-.7l.4-.2h.3l.6-.2h.2v-.2l-.2-.2H113.7c-.2 0-.3 0-.5-.2-.4 0-.7-.3-.8-.6 0 0 0-.3-.2-.5v-1.5c.2-.3.3-.6.5-.7l.7-.4 1-.2h.4l.7.3c.2 0 .4 0 .6.2.3 0 .5 0 .6.2.2 0 .2.2.3.5v.7l-.2.2h-1l-.5-.3h-.3s-.3 0-.3-.2H113.8c-.2 0-.3 0-.3.3v.4h.2c0 .2 0 .2.2.2l.3.2h1.8s.3 0 .5.2h1.2c.2.2.4.2.6.2.2 0 .4 0 .4.2v1.4l-.6.2-.5.3c-.2 0-.2.2-.2.3 0 .2 0 .3.4.4h1c.2.2.4.2.5.2h2.3l1.6-.4c.6 0 1.2-.3 1.7-.6l.4-.2s.2 0 .2-.2h.3c.3-.4.5-.6.5-1 0-.3-.3-.6-1-1l-.4-.3-.3-.3c-.3-.2-.4-.4-.4-.6v-.2c.2-.2.2-.4.4-.4l.4-.3h1l.6.4c.2.2.5.3 1 .4l1.6.2h.6l.4-.2h.5c.4 0 .6 0 .6.3v.5h-.3c0 .2-.2.4-.3.5l-.3.4-.2.3c0 .4.2.8.4 1l.4.4.5.4 1.4.4h2.7l.7-.3c.3 0 .5-.2.8-.3l.6-.2s.3 0 .4-.2c.6-.4 1-.7 1-1 0-.4-.4-.7-1-1l-.5-.4-.4-.2-.2-.6v-.3c0-.2.2-.3.3-.4l.5-.3h.9l.3.3.3.2c.3 0 .6.3 1 .3l.7.2h1.5s.3 0 .5-.2h.4c.6 0 .8 0 .8.4v.2c-.2 0-.2 0-.3.2l-.3.3-.4.4v.4c0 .5 0 1 .3 1l.5.5h.5l.6.3.7.2h2.7c.3 0 .5-.2.8-.3l.7-.3.8-.4.7-.3.4-.6.8-.7c.2-.2.5-.5.8-.6.3-.2.6-.3 1-.2h.3l.3.6c0 .2 0 .4.2.6 0 .3.2.5.3.8l.2.3v.4l.2.2.3.2h.6c.3 0 .6 0 1-.2h1c.2-.2.5-.2.8-.2.4 0 .6 0 .8-.2l.7-.4.7-.4c.3-.2.7-.2 1-.2h1l1 .4 1 .4 1.2.2h4.8l2.4.2h1.3l.4.2c.2 0 .4.2.6.4.3 0 .5.3.8.4l.8.2c.4 0 .7 0 1-.2 0-.2.3-.3.6-.5l.6-.2h.4v.5zm-54.8-.6s.2 0 .2-.2h.3l-.6.2zm55-5.8c0 .2-.2.4-.4.6l-1 .2h-.2s0 .2-.2.3c0 0-.2 0-.2.2h-.2s-.2 0-.2-.2l-.2-.4v-1.1c.2-.2.5-.2.8-.2 0 0 .2 0 .3-.2l.2-.4.3-.3c0-.2.2-.2.3-.2l.2.3c0 .3 0 .4.2.6v.5l.2.4z"/><script xmlns=""/></svg>